<?xml version="1.0" encoding="UTF-8" standalone="no"?>
<svg
   width="297mm"
   height="130mm"
   viewBox="0 0 297 130"
   version="1.1"
   id="svg8"
   inkscape:version="1.1.1 (3bf5ae0d25, 2021-09-20)"
   sodipodi:docname="meLogo.svg"
   xmlns:inkscape="http://www.inkscape.org/namespaces/inkscape"
   xmlns:sodipodi="http://sodipodi.sourceforge.net/DTD/sodipodi-0.dtd"
   xmlns="http://www.w3.org/2000/svg"
   xmlns:svg="http://www.w3.org/2000/svg"
   xmlns:rdf="http://www.w3.org/1999/02/22-rdf-syntax-ns#"
   xmlns:cc="http://creativecommons.org/ns#"
   xmlns:dc="http://purl.org/dc/elements/1.1/">
  <title
     id="title923">MOTHER: Encore Logo (reference picture provided by Copper, SVG traced by TopHat#1810)</title>
  <defs
     id="defs2" />
  <sodipodi:namedview
     id="base"
     pagecolor="#ffff00"
     bordercolor="#666666"
     borderopacity="1.0"
     inkscape:pageopacity="0"
     inkscape:pageshadow="2"
     inkscape:zoom="0.35355339"
     inkscape:cx="456.79098"
     inkscape:cy="227.68838"
     inkscape:document-units="mm"
     inkscape:current-layer="layer5"
     inkscape:document-rotation="0"
     showgrid="false"
     inkscape:window-width="1366"
     inkscape:window-height="715"
     inkscape:window-x="-8"
     inkscape:window-y="-8"
     inkscape:window-maximized="1"
     inkscape:pagecheckerboard="0" />
  <metadata
     id="metadata5">
    <rdf:RDF>
      <cc:Work
         rdf:about="">
        <dc:format>image/svg+xml</dc:format>
        <dc:type
           rdf:resource="http://purl.org/dc/dcmitype/StillImage" />
        <dc:title>MOTHER: Encore Logo (reference picture provided by Copper, SVG traced by TopHat#1810)</dc:title>
      </cc:Work>
    </rdf:RDF>
  </metadata>
  <g
     inkscape:groupmode="layer"
     id="layer5"
     inkscape:label="Full circle"
     style="display:inline">
    <ellipse
       style="display:inline;opacity:1;fill:#ffffff;fill-opacity:1;stroke:none;stroke-width:112.157"
       id="path854-8"
       cx="93.067184"
       cy="58.935936"
       rx="31.439253"
       ry="31.81913" />
  </g>
  <g
     inkscape:groupmode="layer"
     id="layer4"
     inkscape:label="MOTHER"
     style="display:inline;opacity:1">
    <path
       style="fill:#b1994f;fill-opacity:1;stroke:none;stroke-width:0.264583px;stroke-linecap:butt;stroke-linejoin:miter;stroke-opacity:1"
       d="M 22.855748,81.99721 H 17.079799 V 35.847525 H 23.02694 L 36.545572,60.653366 49.58575,35.825056 h 6.72089 V 82.068449 H 50.564055 V 48.746166 L 36.895907,74.459877 23.017322,49.82596 Z"
       id="path852" />
    <path
       id="path854"
       style="display:inline;opacity:1;fill:#b1994f;fill-opacity:1;stroke:none;stroke-width:112.174"
       d="m 81.050865,29.517437 a 31.439252,31.828499 0 0 0 -19.439639,29.41875 31.439252,31.828499 0 0 0 23.349479,30.756011 l 0.0031,-0.0641 c -0.774089,-0.318528 -1.124011,-0.702135 -1.279509,-1.047788 -0.210476,-0.467861 1.637069,-1.63729 2.011246,-2.058363 0.374179,-0.42105 1.777153,-0.63167 1.777153,-0.63167 0.912056,-0.959112 1.964293,-1.777788 2.502173,-1.94154 0.537879,-0.163748 0.724929,-0.631929 1.56683,-0.678709 0.841873,-0.04678 1.146152,-0.56118 1.426785,-1.146004 0.280632,-0.584826 1.052531,0.514696 2.175062,0.725232 1.122532,0.210538 1.355958,1.918176 1.636591,1.660852 0.280633,-0.257322 2.128515,0.772121 2.502691,0.982658 0.374177,0.210536 0.748273,1.309867 0.748273,1.309867 0.46979,-0.831005 1.23421,-1.302824 -0.210838,-4.468226 0,0 -0.350753,-0.257186 0.818558,-0.584631 1.1693,-0.327502 1.94107,-1.473728 2.10478,-1.473728 0.1637,0 0.65518,-0.07 1.40353,-0.491072 0.74836,-0.421076 2.05753,-0.795748 2.82928,-1.216822 0.77175,-0.421073 0.0236,-1.052441 1.52033,-1.052441 1.4967,0 2.87655,-1.146359 3.01687,-1.450468 0.14031,-0.30411 3.41427,-2.011809 3.88193,-2.292524 0.46772,-0.280716 0.14038,-0.561202 0.53795,-0.958882 0.39756,-0.397676 0.60798,-1.263506 1.66036,-0.959397 1.05237,0.304109 1.44988,-0.304291 1.84744,-0.701971 1.06505,-1.4246 2.3232,-2.798221 2.25051,-4.649664 0,0 -0.28939,-0.537594 -0.99219,-0.04135 -0.70279,0.496241 -0.3886,0.984209 -0.73587,0.851879 -0.34719,-0.13233 -0.62013,-0.6203 -0.0248,-1.389471 0.59531,-0.769172 1.94303,-1.637591 1.81901,-2.109019 -0.12402,-0.471428 -0.45471,-1.554885 0.0165,-1.637592 0.47129,-0.0827 2.18281,-6.657884 1.38906,-8.245852 -0.79375,-1.587966 -2.05052,-3.2421 -2.05052,-3.771421 0,-0.03788 0.0113,-0.07401 0.0289,-0.108554 l -0.0165,9.98e-4 c 0,0 -1.19286,-0.42133 -1.98799,-0.04703 -0.79513,0.374284 -3.20341,-1.333307 -3.5078,-2.783596 -0.10686,-0.531312 -0.27989,-2.006915 -0.25735,-2.596472 0,0 -2.67373,-2.764937 -2.8391,-1.739424 -0.16536,1.025585 -2.06963,0.260521 -2.10271,-0.0041 0,-5.29e-4 10e-4,-0.0015 10e-4,-0.0021 -0.0885,0.08744 -0.81456,0.79605 -1.12551,0.79605 -0.33072,0 -1.55442,-1.521802 -1.48828,-1.852628 0.066,-0.32975 -2.19969,-0.100622 -2.27997,0.228476 l 0.0145,0.0031 0.23048,0.807424 c 0.1888,0.151817 0.50061,0.276231 1.00976,0.317385 0,0 0.56224,0.347369 1.28984,1.058647 0.7276,0.711276 4.3987,0.413532 4.5806,0.04963 0.1819,-0.363909 1.35599,1.009021 -0.29766,1.538344 -1.65364,0.529322 -1.81901,0.909772 0.26459,1.141351 2.08359,0.231579 0.76067,1.753381 -0.678,1.687216 -1.43867,-0.06617 -1.17409,0.793984 0.34727,1.571426 1.52135,0.777442 2.08359,2.315785 0.85989,2.580447 -1.2237,0.26466 -4.28294,0.314285 -4.86172,0.04963 -0.57877,-0.264661 -1.25677,-0.860148 -0.34726,-2.398492 0.3566,-0.546616 -0.14887,-1.559111 0.1788,-1.655683 0.17305,-0.05101 2.29202,0.66806 1.77405,-1.430825 -0.0536,-0.217328 -0.64941,-0.832574 -1.37149,-0.621852 -0.51783,0.15112 -1.18391,0.350646 -1.81591,-0.618747 -0.57672,-0.538166 -1.22598,-0.06765 -1.54358,-0.188675 -0.29791,-0.113529 -2.05222,-0.579758 -2.46238,-0.981623 -0.58834,0.575955 -1.10357,1.055164 -1.3162,1.180118 -0.66146,0.388721 -0.80202,1.480449 0.23151,1.877441 1.03353,0.396992 1.73888,0.151153 0.92036,1.16875 -0.81851,1.017593 -2.794975,0.819078 -4.069518,0.585147 -0.401249,-0.07364 -0.913165,0.139151 -1.066086,0.211419 0.163685,0.942705 1.015267,0.853262 1.523939,1.278335 l 2.528015,0.59187 h 5.1e-4 c 0.41888,0.07119 0.78841,0.117042 1.048,0.128712 1.04069,0.04678 2.12292,0.729455 2.23346,1.02918 0.15736,0.426685 -1.31409,0.796689 -1.74563,0.388204 -0.66097,0.410362 -0.89468,0.565581 -0.5793,0.600659 1.28848,0.143306 2.09699,0.721861 2.38642,0.77899 0.85215,0.168288 1.19198,1.581016 1.66295,2.073353 0.59805,0.625196 1.38353,-0.340565 3.26802,-0.484351 2.20999,1.380185 0.16407,2.772052 -0.38551,2.573213 -0.54957,-0.19886 -0.83016,-0.198457 -1.06402,0.02378 -0.23386,0.222234 -1.34285,0.749112 -2.39727,-0.982658 -0.9294,-1.526441 -1.74201,-0.71366 -2.33836,-0.795536 -0.59634,-0.08188 -0.33932,0.970732 -0.32762,1.345018 0.0117,0.374288 -1.76574,-0.139893 -2.23346,-0.128194 -0.46772,0.01169 -1.026796,0.39214 -1.917714,0.02325 -0.555397,-0.229962 -0.158282,-0.76724 -0.799949,-1.624669 -0.502272,-0.67113 0.02663,-1.298232 -0.989089,-1.802488 -0.815896,-0.405051 -0.560843,0.257311 -1.543058,-0.502959 -0.982216,-0.760272 -1.379903,-0.2571 -1.859317,0.327724 -0.479415,0.584824 -1.952795,-0.09392 -3.110405,0.198496 -1.15761,0.292411 -1.496933,0.468183 -2.116667,-0.607896 -0.61973,-1.076045 -2.262364,-0.860087 -2.542997,-0.824996 -0.280633,0.03509 -0.625737,-2.099229 -0.684197,-2.415034 -0.05847,-0.315807 0.01741,-0.468024 0.619601,-0.889096 0.602187,-0.421074 -0.035,-1.22786 -0.05839,-1.929649 -0.02339,-0.701791 2.198589,-1.181632 3.847309,-1.555919 1.648716,-0.37429 0.291973,-1.110852 0.291973,-1.110852 v -9.99e-4 c -0.238432,0.169333 -2.005412,0.06476 -3.231843,0.03412 -1.322917,-0.03309 -0.409279,-1.583833 -0.409279,-1.583833 0.248047,-2.332324 0,-2.216537 -0.545703,-2.398492 -0.545703,-0.181955 -2.042253,2.257891 -2.918685,3.217288 -0.876432,0.959396 -1.471745,0.173683 -1.885156,-0.339098 -0.413412,-0.51278 1.119208,-1.009473 1.463476,-1.439095 0.188836,-0.235651 -0.658989,-0.765906 -0.79375,-0.396992 -0.249197,0.682199 -1.298112,1.290224 -1.298112,1.290224 -1.769401,-0.132331 -0.818554,-1.951877 -0.818554,-1.951877 l 0.0041,-0.0052 c -0.01217,-0.01302 -0.02067,-0.03151 -0.02067,-0.061 0,-0.793984 -2.215885,0.529322 -2.645833,1.025563 -0.429948,0.496239 -1.058333,0.09925 -2.315104,0.793983 -1.256771,0.694735 -2.116667,-0.165413 -3.208073,-1.025562 -1.091409,-0.86015 -0.463021,-1.422555 0.03307,-2.4812 0.496094,-1.058645 1.549363,-1.956685 1.885156,-2.646612 0.347147,-0.713246 -0.03765,-0.919822 0.429948,-1.521802 0.572151,-0.736583 1.854179,-1.869072 2.265495,-2.332327 3.151243,-2.328219 3.097244,-2.431617 3.607533,-2.564421 0.377454,-0.491855 0.882287,-0.901098 1.444871,-1.24732 z m 29.238525,5.601822 c -0.49776,0.0052 -1.35165,0.151368 -2.45515,0.236232 -1.00254,0.0771 -0.36963,0.954776 0.76068,1.009021 1.24047,0.05952 2.51038,0.196611 2.66237,0.959396 0.23048,1.156671 2.09054,1.043954 1.73633,0.132331 -0.38939,-1.002157 -2.21589,-2.150372 -2.21589,-2.150372 -0.0192,-0.142017 -0.18968,-0.189704 -0.48834,-0.186608 z m -7.56336,1.363109 c -0.27712,-0.0034 -0.51832,0.05375 -0.58033,0.246053 -0.16537,0.512781 -0.0331,1.091727 0.57878,1.091727 0.61185,0 1.90169,0.198496 1.90169,-0.24812 0,-0.446615 -0.38033,-0.992478 -0.87643,-0.909773 0,0 -0.56186,-0.174223 -1.02371,-0.179887 z m 6.3438,1.160995 c -0.0449,0.004 -0.0877,0.01512 -0.12868,0.03412 0,0 -0.37447,0.02343 0.0465,0.912356 0.42092,0.88893 1.28661,3.134471 1.77767,2.97072 0.49111,-0.163752 1.4266,-1.075888 0.72502,-1.777675 -0.65773,-0.657926 -1.74737,-2.199915 -2.42052,-2.139518 z m 9.65057,3.518133 c -0.096,-0.01667 -0.27124,0.07327 -0.48317,0.4461 -0.50003,0.540778 -1.4574,-0.455315 -1.33326,0.409396 0.12862,0.584825 0.6667,1.555536 1.20458,1.532141 0.53788,-0.0234 0.32712,-0.491466 0.82993,-0.421285 0.5028,0.07018 0.91237,-0.06988 0.58497,-0.420773 -0.32741,-0.350892 -0.74841,-1.31043 -0.72502,-1.439095 0.009,-0.04824 -0.0204,-0.09648 -0.078,-0.106484 z m -47.879248,4.931383 c 0.577485,-0.0249 2.376083,0.65235 2.77916,0.791916 0.429947,0.148872 0.46302,1.389471 0.727604,1.538344 0.264583,0.148872 0.562239,-1.075181 1.07487,-1.141352 0.51263,-0.06617 0.578776,-0.06617 2.199348,-0.777443 1.620573,-0.711276 1.967839,1.207518 1.91823,2.233079 -0.04961,1.025563 0.661458,1.769923 1.091406,1.918794 0.429948,0.148873 0.28112,-1.37293 0.810286,-1.654131 0.529167,-0.281203 0.975651,1.323305 1.537891,2.613529 0.562239,1.290223 -0.843359,0.578946 -1.570964,0.148872 -0.727604,-0.430075 -0.942578,0.181954 -0.248047,1.670673 0.694532,1.488721 -0.148828,0.942857 -0.677994,0.413535 -0.529167,-0.529324 -2.100136,-1.10827 -2.033985,-0.281204 0.06615,0.827067 -0.09922,1.37293 -0.396875,1.62105 -0.297656,0.24812 -1.124479,-1.157892 -1.554427,-1.670673 -0.42995,-0.512782 -0.264583,-2.100748 -0.51263,-2.74586 -0.248047,-0.645113 -1.124479,0.26466 -1.570963,0.578946 -0.446485,0.314285 -0.165365,2.448115 -0.677995,2.497741 -0.51263,0.04963 -0.711068,-1.654134 -1.141016,-1.60451 -0.429948,0.04963 -0.529166,1.439095 0.628386,3.688717 1.157552,2.24962 6.01927,4.416534 6.531901,5.094729 0.51263,0.678192 -0.661459,1.50526 -0.661459,1.50526 0,0 -1.488281,-1.538344 -2.199349,-1.703757 -0.711067,-0.165413 -2.695442,-1.803005 -3.290755,-2.216537 -0.595312,-0.413535 -4.018359,-5.872172 -4.514453,-6.136833 -0.496094,-0.264661 -1.50482,-2.646612 -1.537891,-2.99398 -0.03307,-0.347368 0.777214,-1.009021 1.207162,-0.959397 0.429948,0.04963 0.843357,-0.959397 0.859896,-1.521803 0.01654,-0.562404 0.694531,-0.7609 1.124479,-0.893231 0.02687,-0.0083 0.05969,-0.01281 0.09818,-0.01448 z M 119.679,47.033667 c -0.0616,-0.0044 -0.0873,0.01654 -0.0873,0.01654 0,0 -1.33946,0.645111 0.26458,1.472178 0,0 1.04178,-0.463157 0.47956,-1.042104 -0.35141,-0.361841 -0.5541,-0.439338 -0.65681,-0.446616 z m -4.79764,8.422121 c 1.0268,0.166475 0.69367,0.02847 0.81855,0.772271 0.10072,0.599929 -1.63619,1.160495 -2.50269,1.228195 -0.82101,0.06414 -0.65764,-0.461171 -0.43253,-0.900986 0.25755,-0.503203 2.11667,-1.09948 2.11667,-1.09948 z m 3.24373,1.357938 c 0.0547,0.0018 0.11345,0.01128 0.17673,0.02895 0.57977,0.731277 0.10509,2.177741 -0.0992,2.74586 -0.21204,0.589636 -2.86748,0.350072 -1.76113,-0.768655 0.93852,-0.372439 0.86253,-2.03294 1.68362,-2.006153 z m -16.61449,2.774808 c 0.0414,-0.0017 0.0856,9.61e-4 0.13384,0.0083 0.77174,0.116965 1.35656,1.449899 3.27422,0.724717 1.91766,-0.725183 2.59614,0.865294 1.19269,1.146519 -0.67194,0.134647 -0.0388,2.271742 0.5147,2.198965 0.62776,-0.08254 0.30447,-1.277086 1.00562,-1.660852 0.45431,-0.248676 2.12619,-0.04966 2.17454,1.09948 0.0468,1.146255 -0.51451,1.988121 0.28061,2.619733 0.79513,0.631609 1.54342,-0.514645 2.94659,1.193042 1.40317,1.707687 1.44996,1.68459 1.00562,2.058879 -0.44433,0.374288 -1.59024,1.12258 -1.28622,1.426688 0.30402,0.30411 1.23988,0.772348 2.03501,0.02378 0.79512,-0.748575 2.08105,-0.02357 1.80041,0.397508 -0.28063,0.421074 -1.91731,1.286315 -1.98747,1.613814 -0.0702,0.327503 -2.24506,-0.09345 -2.57246,0.0703 -0.32741,0.163751 -0.64826,1.303861 -0.91209,1.473728 -0.45492,0.29291 -2.55924,-0.305487 -3.13417,-0.912355 -0.49703,-0.524641 -1.87422,0.287527 -3.01636,-1.099483 -1.12893,-1.370968 -0.79514,-1.543803 -1.28622,-1.216302 -0.49111,0.327502 -0.53833,1.965161 -0.56172,2.175699 -0.0234,0.210535 -0.84167,1.473687 -0.9586,1.847976 -0.11693,0.374287 -0.35441,1.060612 -1.12242,1.309868 -0.61624,0.200003 -0.96639,1.344354 -1.424197,1.559536 -0.860121,0.404274 -1.61794,-1.833731 -1.590601,-2.269262 0.04606,-0.733745 1.405387,0.491771 2.406578,-0.974389 0,0 -0.654923,-1.590825 -1.450046,-1.450467 -0.795128,0.140357 -0.91205,1.239829 -1.286227,1.193042 -0.374176,-0.04678 -1.356,-0.397423 -1.262456,0.04704 0.09354,0.444465 -0.09362,0.795077 0.65474,1.42669 0,0 0.537549,1.871582 0.701249,2.269262 0.163703,0.397681 -1.61368,0.982678 -2.011246,0.795536 -0.397563,-0.187146 -0.490651,0.724981 0.561724,0.678194 1.052375,-0.04678 0.490622,1.239779 0.911571,1.660852 0.42095,0.421074 0.701839,0.982393 0.04703,1.02918 -0.654812,0.04678 -0.561483,-0.771926 -1.613855,-0.374246 -1.052375,0.39768 -1.402855,-0.795291 -1.706874,-0.654934 -0.304017,0.140358 -1.254416,0.818563 -1.601968,0.43266 -0.379227,-0.421072 -0.483817,-0.985342 -0.444418,-1.40343 0.0478,-0.507212 -0.293637,-0.645807 0.151929,-1.579178 0.468387,-0.981193 1.215837,-0.8557 1.74253,-1.064332 0.477361,-0.189092 0.900353,-2.046635 0.68988,-4.128612 0,0 0.806246,-0.897504 0.280601,-1.567289 -0.483079,-0.615551 -1.674609,-2.067305 -2.853055,-1.61433 -1.084813,0.416981 -2.291918,-1.637431 -0.444418,-1.941539 -0.09071,-0.10723 2.219069,-0.290902 2.829804,-0.538109 0.347932,-0.140835 0.238889,-0.622631 1.321366,-0.748497 0.911005,-0.105925 1.204068,-0.02321 1.110525,-1.590551 -0.09355,-1.567331 1.19267,-1.240247 1.379762,-2.12918 0.187087,-0.888934 2.923472,-1.87133 2.900072,-2.222223 -0.0219,-0.328963 -0.14652,-1.315697 0.47388,-1.341399 z m -12.862781,6.598439 c 0.881491,0.111827 1.16522,1.739375 1.116727,2.041819 -0.09049,0.564408 -0.240281,1.161723 -0.7953,1.309866 -0.450533,0.120255 -0.864074,-0.414856 -1.040765,-0.772273 -0.162986,-0.329728 -0.252,-1.227625 -0.32711,-1.695486 -0.07691,-0.47909 0.491167,-0.725416 0.631486,-0.830684 0.151109,-0.05416 0.289031,-0.06922 0.414962,-0.05324 z m -18.428335,1.998399 c 0.158822,0.0061 0.32298,0.03878 0.490411,0.1039 0.892969,0.347368 1.438672,0.793984 1.438672,2.894732 l 0.337963,0.413017 c 0.162377,0.09303 0.398208,0.16593 0.753443,0.16593 1.008724,0 0.942578,-0.711277 1.769401,1.637591 0,0 1.422135,1.687216 1.438672,1.968418 0.01654,0.281203 0.347266,0.363906 -0.264583,0.74436 0,0 -1.025261,-0.479698 -1.422136,-1.075185 -0.396875,-0.59549 -1.488281,-1.720299 -1.703255,-1.769923 -0.214974,-0.04963 -1.289844,0.165408 -1.405599,0.01654 -0.115755,-0.148872 -1.174088,-0.62857 -1.736328,-1.323306 -0.56224,-0.694736 -1.785938,-2.282704 -1.339453,-2.86165 0.362767,-0.470393 0.954572,-0.940892 1.642792,-0.914424 z m 20.287136,3.11132 c 0.08734,0.0076 1.037588,0.707651 1.678451,1.434962 0.795885,0.903243 -0.146016,1.173563 -0.959115,0.783642 -0.760854,-0.364864 -1.583174,-0.798365 -1.519803,-1.450467 0.05935,-0.610809 0.794781,-0.759867 0.794781,-0.759867 -0.0022,-0.0058 -1.37e-4,-0.0088 0.0057,-0.0083 z m -2.828769,0.426456 c 0.280403,0.01791 0.509543,0.214443 0.765329,0.71593 0.292325,0.573127 -1.028999,0.772078 -1.099159,0.760383 -0.865285,-0.72518 0.210323,-1.473729 0.210323,-1.473727 0.04239,-0.0044 0.08345,-0.0051 0.123507,-0.0026 z m 16.601049,2.157094 c 0,0 0.19845,0.0827 1.48829,0.363909 1.28985,0.281202 1.68671,0.711276 0.39687,0.89323 -1.28985,0.181956 -2.27062,0.0041 -2.48047,-0.496239 -0.16661,-0.397241 0.63542,-0.752898 0.59531,-0.7609 z m -25.20569,0.285335 c 0.235736,-0.01376 0.466632,0.09018 0.845942,0.168515 0.858985,0.177419 2.257078,1.419241 4.910812,1.029183 2.335546,-0.343295 1.918197,-0.989909 2.549197,-0.04652 0.205621,0.307416 -0.689018,1.216769 -1.707388,1.333127 -0.951945,0.108774 -0.554755,-0.360092 -0.975135,-0.471944 -0.422209,-0.112338 -0.61495,0.495725 -0.61495,0.495725 0,0 -2.887478,-0.02243 -2.244823,0.561369 0.803055,0.729523 0.138919,1.397547 -0.795301,1.520252 -0.752665,0.09886 -2.291238,-0.679881 -2.993614,-1.216304 -0.702662,-0.53663 -0.23358,-2.43261 -0.23358,-2.43261 0.644581,-0.710562 0.955731,-0.92308 1.25884,-0.94079 z m -2.14199,5.167618 c 0.09003,-0.0042 0.185211,-0.0015 0.285255,0.0046 1.312897,0.06526 2.591197,2.812359 2.772439,2.903003 0.18709,0.09357 1.203926,1.584707 -0.116787,1.847978 -0.993023,0.197951 -1.326081,-0.923474 -1.957504,-0.87669 -1.201824,0.409603 -0.964652,-1.006928 -1.772502,-1.793703 -0.955262,-0.930341 -0.605517,-2.019702 0.789099,-2.085238 z" />
    <path
       style="display:inline;fill:#b1994f;fill-opacity:1;stroke:none;stroke-width:0.264583px;stroke-linecap:butt;stroke-linejoin:miter;stroke-opacity:1"
       d="M 136.52987,81.578452 V 41.197773 h -12.17686 v -5.134726 h 29.8009 v 5.129273 h -11.80917 v 40.407764 z"
       id="path857" />
    <path
       style="display:inline;fill:#b1994f;fill-opacity:1;stroke:none;stroke-width:0.264583px;stroke-linecap:butt;stroke-linejoin:miter;stroke-opacity:1"
       d="m 159.79711,36.073035 h 5.99853 V 55.60384 h 19.37135 V 36.066015 h 6.14329 v 45.557942 h -6.10195 V 62.044791 h -19.49658 v 19.730937 h -6.00728 z"
       id="path864" />
    <path
       id="rect868"
       style="fill:#b1994f;fill-opacity:1;stroke:none;stroke-width:413.48"
       d="m 765.21875,136.375 v 20.68555 131.31445 20.68555 h 19.44922 78.92383 V 288.375 h -78.92383 v -53.57617 h 47.58594 v -24.05078 h -47.58594 v -53.6875 h 74.13672 V 136.375 Z"
       transform="scale(0.26458333)" />
    <path
       id="rect968"
       style="display:inline;opacity:1;fill:#b1994f;fill-opacity:1;stroke:none;stroke-width:412.569"
       d="m 892.69922,136.64844 v 17.72461 153.74804 h 21.4375 v -72.27734 h 20.71289 L 977.75,308.12109 h 32.7051 l -45.01369,-72.27734 v -0.36719 L 980,234.25 C 994.55863,232.65625 999.125,217 999.125,217 V 187.22656 187.125 168.82227 h -0.31836 c 0.138,-1.34947 0.21875,-2.73617 0.21875,-4.16016 v -5.12695 c 0,-1.56259 -0.0864,-3.08706 -0.25195,-4.5586 -0.24837,-2.20799 -0.67335,-4.29569 -1.24805,-6.21484 -0.19147,-0.63955 -0.39945,-1.25935 -0.62305,-1.85938 -0.44741,-1.20064 -0.95586,-2.31785 -1.51953,-3.33789 -0.8445,-1.52852 -1.81179,-2.83755 -2.87109,-3.87695 l -0.002,-0.002 c -0.35299,-0.34621 -0.71519,-0.66279 -1.08789,-0.94727 h -0.002 c -0.37268,-0.28436 -0.75416,-0.53693 -1.14453,-0.75586 h -0.002 c -0.0659,-0.0369 -0.13284,-0.0685 -0.19922,-0.10351 -0.32725,-0.17266 -0.65814,-0.32664 -0.9961,-0.45118 -0.20323,-0.0749 -0.40844,-0.14039 -0.61523,-0.19726 -0.38495,-0.10587 -0.77792,-0.17766 -1.17383,-0.21875 -0.0288,-0.003 -0.0571,-0.009 -0.0859,-0.0117 h -0.002 c -0.21307,-0.0194 -0.42674,-0.0293 -0.64258,-0.0293 l -10.77539,-0.32226 h -61.64648 z m 82.58594,17.72461 -0.0137,14.44922 h -0.0195 V 187.125 h -0.002 v 25.16016 h -9.80859 -51.30469 v -25.0586 h 0.0527 v -32.7832 z"
       transform="scale(0.26458333)" />
  </g>
  <g
     inkscape:groupmode="layer"
     id="layer3"
     inkscape:label="Encore"
     style="display:inline">
    <path
       style="fill:#f770ce;fill-opacity:1;stroke:none;stroke-width:0.264583px;stroke-linecap:butt;stroke-linejoin:miter;stroke-opacity:1"
       d="m 169.26847,100.58354 c 0,0 0.0702,-1.379775 -0.65481,-1.964427 -0.72497,-0.584652 -1.43214,-0.09269 -1.61364,-1.309621 -0.16461,-1.103696 1.87513,-1.351458 2.59586,-0.187087 0.77937,1.259106 1.96854,2.13206 -1.44994,5.869905 -3.53778,3.86828 -9.61168,2.12813 -11.06162,0.95883 -1.44994,-1.1693 -3.11035,-2.73617 -2.92326,-5.823133 0.18709,-3.086966 2.47893,-10.289879 10.19633,-10.102789 0,0 3.90363,0.22301 3.26418,-2.149242 -0.50902,-1.888379 -4.6465,-1.959782 -9.2023,-0.613997 -4.34366,1.283119 -8.23074,9.23432 -8.0197,11.918976 0.19798,2.518495 0.76546,11.165915 10.73168,11.628945 9.92197,0.46097 13.01377,-8.968428 12.50156,-10.980213 -0.56863,-2.233391 -3.44397,-5.850541 -7.34219,-4.167187 -4.10269,1.77165 -3.02247,7.38817 0.46303,7.87135 2.77352,0.38448 2.37666,-1.05659 2.51482,-0.95031 z"
       id="path976"
       sodipodi:nodetypes="csssssscsssssssc" />
    <path
       style="display:inline;opacity:1;fill:#f770ce;fill-opacity:1;stroke:none;stroke-width:0.264583px;stroke-linecap:butt;stroke-linejoin:miter;stroke-opacity:1"
       d="m 173.42787,81.148046 c 0,0 -1.47,1.051687 -0.88535,2.104059 0.58466,1.052375 3.3766,2.342621 7.11837,1.056387 3.74178,-1.286235 8.57535,-6.101417 8.08424,-11.059267 -0.4911,-4.957849 -5.82479,-8.259299 -10.94634,-8.259299 -5.12155,0 -14.14619,4.727781 -15.40296,11.540802 -1.25677,6.813021 1.52136,8.102865 2.18281,7.772136 0.66146,-0.33073 2.3151,0.06615 1.68672,-5.787761 -0.62839,-5.853906 7.67292,-10.186458 10.71563,-9.954948 3.04271,0.231511 5.98619,0.463021 7.50755,3.472656 1.52135,3.009636 -4.08098,9.730732 -10.06067,9.115235 z"
       id="path984"
       sodipodi:nodetypes="csssssssssc" />
    <path
       style="display:inline;fill:#f770ce;fill-opacity:1;stroke:none;stroke-width:0.264583px;stroke-linecap:butt;stroke-linejoin:miter;stroke-opacity:1"
       d="m 175.8487,99.152603 c 0,0 -0.4961,0.297656 -0.56224,0.760677 -0.0661,0.46302 0.0331,1.71979 1.19062,1.71979 1.15755,0 104.0474,-5.886977 104.0474,-5.886977 0,0 1.38906,-0.165365 1.38906,-0.79375 0,-0.628386 0.16536,-1.190625 -0.69453,-1.256771 -0.8599,-0.06615 -103.28672,4.861718 -103.28672,4.861718 0,0 -2.14974,0.297657 -2.08359,0.595313 z"
       id="path978" />
    <path
       style="opacity:1;fill:#f770ce;fill-opacity:1;stroke:none;stroke-width:0.264583px;stroke-linecap:butt;stroke-linejoin:miter;stroke-opacity:1"
       d="m 181.9905,95.041041 c 0,0 7.76418,-11.9269 7.71741,-13.096205 -0.0468,-1.169305 -0.74835,-0.865285 -0.74835,-1.987817 0,-1.122531 1.41899,-2.996182 3.55468,-1.099147 2.06601,1.835138 1.59762,0.53369 0.72614,3.375135 -0.9521,3.104335 -8.4565,13.808226 -9.08667,14.05919 -0.80507,0.320621 -2.02289,-0.970523 -2.16321,-1.251156 z"
       id="path998"
       sodipodi:nodetypes="csssssc" />
    <path
       style="display:inline;fill:#f770ce;fill-opacity:1;stroke:none;stroke-width:0.264583px;stroke-linecap:butt;stroke-linejoin:miter;stroke-opacity:1"
       d="m 193.8569,79.589973 c 0,0 2.56315,-2.133203 4.64674,-2.033984 2.0836,0.09922 6.58719,-0.387188 4.23901,4.309166 -2.34817,4.696354 -5.91604,8.939374 -6.04833,9.534686 -0.1323,0.595313 -0.30734,1.005887 0.81714,0.377502 1.12447,-0.628386 6.83884,-5.035898 7.29977,-4.832658 0.45004,0.198437 2.65766,2.339656 -1.2942,4.747138 -4.18525,2.549659 -7.35765,4.996407 -10.56396,4.289449 -3.17331,-0.69968 0.66805,-5.989779 2.79349,-8.647738 1.88486,-2.357114 5.13254,-6.372894 3.84046,-6.863117 -1.28462,-0.487392 -4.37634,1.970398 -4.48872,1.783101 -0.17628,0.07051 -2.50021,-0.724656 -1.2414,-2.663545 z"
       id="path1000"
       sodipodi:nodetypes="cssssssssscc" />
    <path
       style="display:inline;fill:#f770ce;fill-opacity:1;stroke:none;stroke-width:0.264583px;stroke-linecap:butt;stroke-linejoin:miter;stroke-opacity:1"
       d="m 218.81042,83.80677 c 0,0 -0.50348,2.55864 1.68672,2.149739 2.65633,-0.495927 5.55586,-5.193097 5.09322,-7.044531 -0.46282,-1.852134 -2.57969,-2.943489 -5.68854,-2.315104 -1.78505,0.360807 -4.56594,2.389934 -6.59976,4.311299 -1.5083,1.424899 -2.56107,2.864947 -2.7268,3.130107 -0.45478,0.727612 -2.91972,4.001823 -3.10886,5.920052 -0.18923,1.919158 0.29766,5.060156 2.77813,5.258594 2.48047,0.198437 5.1263,-0.396875 7.17682,-1.521354 2.05052,-1.124479 8.96276,-4.795573 7.70599,-6.647656 -1.25677,-1.852084 -2.2161,-0.231845 -5.1263,1.653645 -2.90969,1.885156 -7.8042,4.67177 -9.29349,3.373438 -1.4017,-1.221974 3.63346,-8.102865 6.21771,-9.921876 0.62895,-0.442707 1.20419,-1.030462 1.7288,-1.403312 1.59169,-1.131229 2.55205,-1.574922 3.29828,-0.977937 0.99219,0.79375 -2.08359,3.340364 -3.14192,4.034896 z"
       id="path1003"
       sodipodi:nodetypes="cssssssssssssssc" />
    <path
       id="path1005"
       style="display:inline;opacity:1;fill:#f770ce;fill-opacity:1;stroke:none;stroke-width:0.999999px;stroke-linecap:butt;stroke-linejoin:miter;stroke-opacity:1"
       d="M 912.60355,278.5795 C 899.60374,278.6485 892.875,286.5 892.875,286.5 c -2.27597,-0.15691 -24.31448,24.29784 -27,32.125 -2.76285,8.05254 -7.40738,11.42345 -5.2955,23.625 2.12322,12.26702 14.90369,13.90376 19.0455,13.375 3.54617,-0.45272 14.93823,-2.22677 27.625,-15 13.38428,-13.47549 19.80359,-31.92548 15.75,-40.375 0,0 8.37814,-2.2612 8.875,-7 0.60028,-5.72521 -6.20209,-14.73987 -19.27145,-14.6705 z m -8.24417,15.55722 c 0.29073,0.0417 0.59495,0.31842 0.39062,1.23828 -1.14602,5.15921 6.40306,9.22194 6.5,9.125 0.88643,12 -15.86588,30.44968 -21.81694,35.09467 -5.95856,4.65083 -17.27397,9.76273 -14.65901,-8.13756 C 877.38926,313.55506 893.375,303.875 894.25,301 c 0.875,-2.875 9.5,-6.75 9.5,-6.75 -0.008,0.0289 0.31864,-0.15494 0.60938,-0.11328 z"
       sodipodi:nodetypes="scsssscsssscssscs"
       transform="scale(0.26458333)" />
    <path
       id="path1011"
       style="display:inline;fill:#f770ce;fill-opacity:1;stroke:none;stroke-width:0.999999px;stroke-linecap:butt;stroke-linejoin:miter;stroke-opacity:1"
       d="m 959.01562,265.44922 c -1.43091,0.003 -3.46247,0.23686 -5.09765,0.92187 -13.08148,5.48008 -10.60664,16.43569 -10.96094,20.3086 -0.42359,4.63038 9.4489,9.69314 11.02681,10.02539 1.59482,0.33581 -17.59857,17.07388 -22.19478,20.25586 -4.59621,3.18198 -8.30664,9.36914 -8.30664,9.36914 -0.0872,0.094 -1.03448,5.5842 4.06446,6.1875 3.97484,0.4703 37.8756,-29.31533 42.24996,-35.88672 4.43516,-6.66273 3.68557,-18.07587 4.24222,-16.9707 0.50875,1.01008 -3.91408,-14.23186 -15.02344,-14.21094 z m -0.14843,13.12305 c 1.74165,-0.0831 2.86078,0.99518 3.05273,2.69531 0.26419,2.34113 0.89255,3.79492 -2.85742,7.35742 0,0 -6.86033,-5.39545 -3.5625,-8.18555 1.35639,-1.14756 2.3222,-1.81732 3.36719,-1.86718 z"
       sodipodi:nodetypes="ssssscsssssscss"
       transform="scale(0.26458333)" />
    <path
       style="display:inline;fill:#f770ce;fill-opacity:1;stroke:none;stroke-width:0.264583px;stroke-linecap:butt;stroke-linejoin:miter;stroke-opacity:1"
       d="m 257.43958,78.446951 c -0.0166,-0.0022 -2.46695,1.102105 0.11575,4.297351 0,0 -3.30026,5.528587 -3.30729,5.65547 -0.0105,0.189532 -1.37092,1.442693 0.21498,3.212207 1.32887,1.482723 2.14455,1.463958 5.75469,0.23151 3.51348,-1.199449 7.73906,-5.324739 7.83828,-6.01927 0.0992,-0.694532 0.31877,-1.885975 -0.74497,-2.132372 -1.06799,-0.247384 -3.32625,1.255549 -4.39704,2.258645 -0.94039,0.880932 -4.9626,3.031015 -4.92953,2.63414 0.0331,-0.396878 2.56399,-3.488018 2.7955,-4.546351 0.23151,-1.058333 0.63842,-3.358076 -0.55221,-4.350263 -1.19062,-0.992188 -1.66368,-1.307214 -2.78816,-1.241067 z"
       id="path1016"
       sodipodi:nodetypes="ccsssssssssc" />
    <path
       style="display:inline;opacity:1;fill:#f770ce;fill-opacity:1;stroke:none;stroke-width:0.264583px;stroke-linecap:butt;stroke-linejoin:miter;stroke-opacity:1"
       d="m 286.80693,82.786735 c 0,-7e-6 -8.70996,5.295835 -11.33023,5.593286 -2.35878,0.267767 -2.70949,-0.320712 -1.67243,-2.786957 1.14847,-2.731194 5.4621,-7.975059 9.00766,-9.167344 1.40365,-0.472012 0.47641,1.257035 -0.99096,2.732084 -1.89052,1.900415 -4.77019,3.749601 -5.69013,3.820377 -0.99801,0.07678 -2.33297,3.496873 0.57329,3.176149 3.07438,-0.339278 8.5401,-5.224777 9.20208,-6.669045 0.7909,-1.725547 1.98558,-4.852452 0.94748,-5.725578 -1.21679,-1.023407 -3.00375,-1.86457 -7.18117,0.308034 -4.43709,2.307653 -7.80656,7.457506 -8.71334,9.268915 -0.90829,1.814417 -1.99947,4.946074 -0.52253,6.606222 1.49593,1.681498 2.19768,2.304535 7.07965,1.025666 4.52036,-1.184142 10.27034,-5.728845 10.45993,-5.936742 1.16043,-1.140879 -0.10387,-2.392421 -1.1693,-2.245067 z"
       id="path1022"
       sodipodi:nodetypes="csssssssssssscc" />
  </g>
</svg>
